<svg width="32" height="32" viewBox="0 0 32 32" xmlns="http://www.w3.org/2000/svg">
    <path d="M16 0C7.163 0 0 7.163 0 16s7.163 16 16 16 16-7.163 16-16S24.837 0 16 0zm0 2.462c7.477 0 13.538 6.06 13.538 13.538 0 7.477-6.06 13.538-13.538 13.538-7.477 0-13.538-6.06-13.538-13.538C2.462 8.523 8.522 2.462 16 2.462zm-2.363 9.431a.615.615 0 0 0 .04.87L17.231 16l-3.554 3.237a.615.615 0 1 0 .83.91l3.553-3.237a1.23 1.23 0 0 0 0-1.82l-3.554-3.237a.615.615 0 0 0-.87.04z" fill="#76B900" fill-rule="nonzero"/>
</svg>
