<svg width="32" height="32" viewBox="0 0 32 32" xmlns="http://www.w3.org/2000/svg">
    <path d="M16 0c8.837 0 16 7.163 16 16s-7.163 16-16 16S0 24.837 0 16 7.163 0 16 0zm0 2.462C8.523 2.462 2.462 8.522 2.462 16c0 7.477 6.06 13.538 13.538 13.538 7.477 0 13.538-6.06 13.538-13.538 0-7.477-6.06-13.538-13.538-13.538zm2.363 9.431c.23.251.21.64-.04.87L14.769 16l3.554 3.237a.615.615 0 1 1-.83.91L13.94 16.91a1.23 1.23 0 0 1 0-1.82l3.554-3.237a.615.615 0 0 1 .87.04z" fill="#76B900" fill-rule="nonzero"/>
</svg>
